<svg width="475" height="90" viewBox="0 0 475 90" fill="none" xmlns="http://www.w3.org/2000/svg">
<g clip-path="url(#clip0_7872_142874)">
<path fill-rule="evenodd" clip-rule="evenodd" d="M75 45C75 65.7107 58.2107 82.5 37.5 82.5C16.7893 82.5 0 65.7107 0 45C0 24.2893 16.7893 7.5 37.5 7.5C58.2107 7.5 75 24.2893 75 45ZM63.9827 44.7868C63.9827 59.296 52.2005 71.0581 37.6659 71.0581C23.8764 71.0581 12.5641 60.4708 11.4406 46.9951H46.2256V42.5785H11.4406C12.5641 29.1027 23.8764 18.5156 37.6659 18.5156C52.2005 18.5156 63.9827 30.2776 63.9827 44.7868Z" fill="#0052FF"/>
</g>
<path d="M97.1276 68V21.4545H113.4C116.643 21.4545 119.317 22.0152 121.423 23.1364C123.529 24.2424 125.097 25.7348 126.128 27.6136C127.158 29.4773 127.673 31.5455 127.673 33.8182C127.673 35.8182 127.317 37.4697 126.605 38.7727C125.908 40.0758 124.984 41.1061 123.832 41.8636C122.696 42.6212 121.461 43.1818 120.128 43.5455V44C121.552 44.0909 122.984 44.5909 124.423 45.5C125.862 46.4091 127.067 47.7121 128.037 49.4091C129.006 51.1061 129.491 53.1818 129.491 55.6364C129.491 57.9697 128.961 60.0682 127.9 61.9318C126.84 63.7955 125.165 65.2727 122.878 66.3636C120.59 67.4545 117.612 68 113.946 68H97.1276ZM102.764 63H113.946C117.628 63 120.241 62.2879 121.787 60.8636C123.347 59.4242 124.128 57.6818 124.128 55.6364C124.128 54.0606 123.726 52.6061 122.923 51.2727C122.12 49.9242 120.976 48.8485 119.491 48.0455C118.006 47.2273 116.249 46.8182 114.219 46.8182H102.764V63ZM102.764 41.9091H113.219C114.915 41.9091 116.446 41.5758 117.809 40.9091C119.188 40.2424 120.279 39.303 121.082 38.0909C121.9 36.8788 122.309 35.4545 122.309 33.8182C122.309 31.7727 121.597 30.0379 120.173 28.6136C118.749 27.1742 116.491 26.4545 113.4 26.4545H102.764V41.9091ZM140.022 68H134.113L151.204 21.4545H157.022L174.113 68H168.204L154.294 28.8182H153.931L140.022 68ZM142.204 49.8182H166.022V54.8182H142.204V49.8182ZM206.177 33.0909C205.904 30.7879 204.798 29 202.859 27.7273C200.92 26.4545 198.541 25.8182 195.723 25.8182C193.662 25.8182 191.859 26.1515 190.314 26.8182C188.783 27.4848 187.586 28.4015 186.723 29.5682C185.874 30.7348 185.45 32.0606 185.45 33.5455C185.45 34.7879 185.745 35.8561 186.336 36.75C186.942 37.6288 187.715 38.3636 188.654 38.9545C189.594 39.5303 190.579 40.0076 191.609 40.3864C192.639 40.75 193.586 41.0455 194.45 41.2727L199.177 42.5455C200.389 42.8636 201.738 43.303 203.223 43.8636C204.723 44.4242 206.154 45.1894 207.518 46.1591C208.897 47.1136 210.033 48.3409 210.927 49.8409C211.821 51.3409 212.268 53.1818 212.268 55.3636C212.268 57.8788 211.609 60.1515 210.291 62.1818C208.988 64.2121 207.079 65.8258 204.564 67.0227C202.064 68.2197 199.026 68.8182 195.45 68.8182C192.117 68.8182 189.23 68.2803 186.791 67.2045C184.367 66.1288 182.457 64.6288 181.064 62.7045C179.685 60.7803 178.904 58.5455 178.723 56H184.541C184.692 57.7576 185.283 59.2121 186.314 60.3636C187.359 61.5 188.677 62.3485 190.268 62.9091C191.874 63.4545 193.601 63.7273 195.45 63.7273C197.601 63.7273 199.533 63.3788 201.245 62.6818C202.957 61.9697 204.314 60.9848 205.314 59.7273C206.314 58.4545 206.814 56.9697 206.814 55.2727C206.814 53.7273 206.382 52.4697 205.518 51.5C204.654 50.5303 203.518 49.7424 202.109 49.1364C200.7 48.5303 199.177 48 197.541 47.5455L191.814 45.9091C188.177 44.8636 185.298 43.3712 183.177 41.4318C181.056 39.4924 179.995 36.9545 179.995 33.8182C179.995 31.2121 180.7 28.9394 182.109 27C183.533 25.0455 185.442 23.5303 187.836 22.4545C190.245 21.3636 192.935 20.8182 195.904 20.8182C198.904 20.8182 201.571 21.3561 203.904 22.4318C206.238 23.4924 208.086 24.947 209.45 26.7955C210.829 28.6439 211.556 30.7424 211.632 33.0909H206.177ZM220.895 68V21.4545H248.986V26.4545H226.531V42.1818H247.531V47.1818H226.531V63H249.35V68H220.895Z" fill="#0052FF"/>
<g opacity="0.8">
<path d="M344.235 67.917V35.5312H329.379V67.917H320.098V35.5312H305.204V67.917H296V26.2891H305.204V29.0388L306.426 28.084C307.037 27.6257 307.686 27.2056 308.412 26.9383C309.405 26.5182 310.436 26.2891 311.582 26.2891H321.053C322.161 26.2891 323.192 26.5182 324.185 26.9383C325.14 27.3202 326.018 27.8931 326.782 28.6187C327.125 28.9624 327.469 29.3061 327.775 29.7262L328.386 30.5664L328.997 29.7262C329.264 29.3443 329.608 28.9624 329.952 28.6187C330.715 27.8931 331.594 27.3202 332.549 26.9383C333.541 26.5182 334.573 26.2891 335.718 26.2891H345.19C346.335 26.2891 347.443 26.5182 348.436 26.9765C349.429 27.3966 350.307 27.9695 351.033 28.7333C351.797 29.4589 352.408 30.3373 352.828 31.3684C353.286 32.3614 353.515 33.4689 353.515 34.6146V67.917H344.235Z" fill="#5C5D6D"/>
<path d="M366.5 67.9161C365.393 67.9161 364.323 67.6869 363.292 67.2668C362.261 66.8086 361.382 66.2357 360.657 65.5101L360.619 65.4719C359.893 64.7081 359.32 63.8297 358.862 62.8367V62.7985C358.442 61.8056 358.251 60.698 358.251 59.5905V34.5756C358.251 33.4299 358.48 32.3605 358.9 31.3294C359.358 30.2982 359.931 29.4198 360.657 28.6942C361.421 27.9304 362.299 27.3575 363.292 26.9374C364.285 26.4791 365.393 26.25 366.5 26.25H385.443C386.588 26.25 387.696 26.4791 388.689 26.9374C389.682 27.3575 390.56 27.9304 391.286 28.6942C392.05 29.4198 392.661 30.2982 393.081 31.3294C393.539 32.3223 393.768 33.4299 393.768 34.5756V51.7996H367.455V58.6357H393.73L384.488 67.9161H366.5ZM384.488 42.5574V35.5685H367.455V42.5574H384.488Z" fill="#5C5D6D"/>
<path d="M406.791 67.9153C405.684 67.9153 404.614 67.6862 403.583 67.2661H403.545C402.552 66.846 401.674 66.2349 400.948 65.5093C400.184 64.7455 399.573 63.8671 399.153 62.8742V62.836C398.733 61.843 398.542 60.7737 398.542 59.6279V14.0664H407.784V26.2874H426.192L416.95 35.5296H407.784V58.635H420.845V67.9153H406.791Z" fill="#5C5D6D"/>
<path d="M451.856 67.917V65.129L450.634 66.122C450.023 66.6185 449.336 67.0386 448.572 67.3441C447.617 67.726 446.586 67.9552 445.517 67.9552H433.868C432.761 67.9552 431.692 67.726 430.66 67.3059C429.629 66.8476 428.751 66.2748 428.025 65.5491L427.987 65.5109C427.261 64.7853 426.689 63.9069 426.23 62.914V62.8758C425.81 61.8828 425.619 60.7753 425.619 59.6678V49.6618C425.619 48.5161 425.848 47.4467 426.269 46.4538C426.727 45.4608 427.3 44.5824 428.025 43.8186C428.789 43.0548 429.667 42.4437 430.699 42.0236C431.692 41.5654 432.799 41.3362 433.907 41.3362H451.856V35.5694H434.136L443.34 26.2891H452.811C453.957 26.2891 455.064 26.5182 456.057 26.9765C457.05 27.3966 457.929 27.9695 458.654 28.7333C459.418 29.4589 460.029 30.3373 460.449 31.3684C460.907 32.3614 461.137 33.4689 461.137 34.6146V67.917H451.856ZM451.856 58.6748V50.5784H434.823V58.6748H451.856Z" fill="#5C5D6D"/>
<path d="M475 6.04688H465.834V67.9159H475V6.04688Z" fill="#5C5D6D"/>
</g>
<defs>
<clipPath id="clip0_7872_142874">
<rect width="75" height="75" fill="white" transform="translate(0 7.5)"/>
</clipPath>
</defs>
</svg>
