<svg width="73" height="26" viewBox="0 0 73 26" fill="none" xmlns="http://www.w3.org/2000/svg">
<path d="M19.5295 25.2684V12.0414H13.5145V25.2684H9.75703V12.0414H3.72654V25.2684H0V8.26672H3.72654V9.38978L4.22134 8.99982C4.46874 8.81266 4.73162 8.64107 5.02542 8.53189C5.42744 8.36031 5.84494 8.26672 6.30883 8.26672H10.1436C10.592 8.26672 11.0095 8.36031 11.4115 8.53189C11.7981 8.68787 12.1538 8.92184 12.463 9.21819C12.6022 9.35858 12.7414 9.49896 12.8651 9.67054L13.1125 10.0137L13.3599 9.67054C13.4681 9.51456 13.6073 9.35858 13.7464 9.21819C14.0557 8.92184 14.4113 8.68787 14.7979 8.53189C15.1999 8.36031 15.6174 8.26672 16.0813 8.26672H19.9162C20.3799 8.26672 20.8284 8.36032 21.2305 8.54749C21.6325 8.71907 21.9881 8.95304 22.2819 9.26499C22.5912 9.56136 22.8385 9.92011 23.0086 10.3412C23.1941 10.7468 23.2869 11.1991 23.2869 11.6671V25.2684H19.5295Z" fill="#EEEEF0"/>
<path d="M28.5446 25.2685C28.0961 25.2685 27.6632 25.1749 27.2457 25.0034C26.8282 24.8162 26.4725 24.5823 26.1787 24.286L26.1633 24.2703C25.8695 23.9583 25.6375 23.5996 25.4521 23.1941V23.1785C25.2819 22.7729 25.2046 22.3205 25.2046 21.8683V11.6516C25.2046 11.1837 25.2974 10.747 25.4674 10.3258C25.653 9.90468 25.885 9.54593 26.1787 9.24956C26.488 8.93761 26.8436 8.70365 27.2457 8.53206C27.6477 8.3449 28.0961 8.25131 28.5446 8.25131H36.2141C36.678 8.25131 37.1264 8.3449 37.5284 8.53206C37.9305 8.70365 38.2862 8.93761 38.58 9.24956C38.8891 9.54593 39.1366 9.90468 39.3067 10.3258C39.4922 10.7314 39.585 11.1837 39.585 11.6516V18.6863H28.9312V21.4783H39.5695L35.8276 25.2685H28.5446ZM35.8276 14.9116V12.0572H28.9312V14.9116H35.8276Z" fill="#EEEEF0"/>
<path d="M44.8564 25.2682C44.408 25.2682 43.975 25.1746 43.5576 25.0031H43.5421C43.1401 24.8315 42.7845 24.5819 42.4907 24.2855C42.1814 23.9737 41.9339 23.6149 41.764 23.2093V23.1937C41.5938 22.7882 41.5165 22.3515 41.5165 21.8835V3.27524H45.2586V8.26656H52.7116L48.9695 12.0412H45.2586V21.478H50.5468V25.2682H44.8564Z" fill="#EEEEF0"/>
<path d="M63.1031 25.2684V24.1298L62.6083 24.5353C62.3609 24.738 62.0826 24.9096 61.7733 25.0344C61.3866 25.1904 60.9692 25.284 60.5362 25.284H55.8201C55.3716 25.284 54.9387 25.1904 54.5212 25.0189C54.1038 24.8316 53.7481 24.5976 53.4543 24.3013L53.4388 24.2858C53.145 23.9894 52.9131 23.6307 52.7276 23.2251V23.2094C52.5574 22.804 52.4801 22.3516 52.4801 21.8992V17.8126C52.4801 17.3446 52.5729 16.9079 52.7431 16.5024C52.9286 16.0969 53.1605 15.7381 53.4543 15.4261C53.7635 15.1142 54.1193 14.8646 54.5367 14.6931C54.9387 14.5059 55.3871 14.4123 55.8356 14.4123H63.1031V12.057H55.9284L59.6548 8.26672H63.4896C63.9535 8.26672 64.402 8.36032 64.8039 8.54749C65.206 8.71907 65.5617 8.95304 65.8555 9.26499C66.1648 9.56134 66.4121 9.92011 66.5822 10.3412C66.7677 10.7468 66.8605 11.1991 66.8605 11.6671V25.2684H63.1031ZM63.1031 21.4938V18.187H56.2067V21.4938H63.1031Z" fill="#EEEEF0"/>
<path d="M72.4739 0H68.7628V25.2685H72.4739V0Z" fill="#EEEEF0"/>
</svg>
