<svg width="87" height="24" viewBox="0 0 87 24" fill="none" xmlns="http://www.w3.org/2000/svg">
<mask id="mask0_1_13" style="mask-type:luminance" maskUnits="userSpaceOnUse" x="0" y="0" width="87" height="24">
<path d="M86.909 0.632904H0.0933228V24H86.909V0.632904Z" fill="white"/>
</mask>
<g mask="url(#mask0_1_13)">
<path fill-rule="evenodd" clip-rule="evenodd" d="M23.0565 12.2148C23.0565 18.6112 17.907 23.7966 11.5548 23.7966C5.52823 23.7966 0.584351 19.1293 0.0933228 13.1883H15.2958V11.2412H0.0933228C0.584351 5.3003 5.52823 0.632904 11.5548 0.632904C17.907 0.632904 23.0565 5.81828 23.0565 12.2148ZM65.6966 21.6982C69.6819 21.6982 72.2969 19.5316 72.2969 16.2684C72.2969 13.2403 70.3295 11.8045 67.354 11.3085L64.7145 10.8647C62.695 10.5253 61.3491 9.63774 61.3491 7.67984C61.3491 5.69588 62.8499 4.18177 65.6966 4.18177C68.4666 4.18177 69.8891 5.59145 70.0441 7.60155H72.0375C71.8826 4.93883 69.863 2.56326 65.7227 2.56326C61.6346 2.56326 59.3834 4.8866 59.3834 7.75819C59.3834 10.8125 61.4274 12.2222 64.2219 12.692L66.8874 13.1097C69.1126 13.5013 70.3556 14.415 70.3556 16.3468C70.3556 18.618 68.5188 20.0798 65.7227 20.0798C62.8255 20.0798 61.0131 18.6702 60.8581 16.2684H58.8907C59.0457 19.4011 61.4274 21.6982 65.6966 21.6982ZM36.3166 21.3329H29.0705V2.95484H36.0579C39.1375 2.95484 41.2855 4.78219 41.2855 7.70597C41.2855 9.82048 40.0951 11.2302 38.1801 11.7V11.7784C40.4574 12.2222 41.8548 13.7885 41.8548 16.2423C41.8548 19.4011 39.5516 21.3329 36.3166 21.3329ZM35.7992 11.0213C37.999 11.0213 39.3445 9.82048 39.3445 7.94091V7.67984C39.3445 5.80029 37.999 4.62557 35.7992 4.62557H31.0116V11.0213H35.7992ZM36.032 19.6621C38.4388 19.6621 39.9139 18.3308 39.9139 16.2946V16.0335C39.9139 13.919 38.4131 12.6398 36.0062 12.6398H31.0116V19.6621H36.032ZM57.5286 21.3329H55.4584L53.9054 16.3468H46.6592L45.1065 21.3329H43.1396L49.1178 2.95484H51.4731L57.5286 21.3329ZM50.3866 4.96493H50.23L47.1768 14.7022H53.4144L50.3866 4.96493ZM75.2121 21.3329V2.95484H86.9086V4.65166H77.1534V10.9691H86.1322V12.6398H77.1534V19.6359H86.9086V21.3329H75.2121Z" fill="white"/>
</g>
</svg>
